<svg xmlns="http://www.w3.org/2000/svg" width="25" height="25" viewBox="0 0 25 25">
    <path fill="#373CF5" fill-rule="nonzero" stroke="#FFF" stroke-width="1.05" d="M23.465 23.985c-.604.611-1.56.611-2.164 0l-4.075-4.149a9.967 9.967 0 0 1-6.038 2.011C5.553 21.847 1 17.24 1 11.538 1 5.836 5.553 1.23 11.163 1.23s10.188 4.607 10.188 10.31c0 2.29-.73 4.403-1.987 6.108l4.075 4.124c.604.636.604 1.604.026 2.214zM11.163 4.335c-3.95 0-7.144 3.232-7.144 7.229 0 3.996 3.195 7.229 7.144 7.229 3.95 0 7.145-3.233 7.145-7.23 0-3.996-3.195-7.228-7.145-7.228z"/>
</svg>
